HIERARCHY
ROOT Hips
{
	OFFSET 0.00000 0.00000 0.00000
	CHANNELS 6 Xposition Yposition Zposition Zrotation Yrotation Xrotation 
	JOINT LHipJoint
	{
		OFFSET 0 0 0
		CHANNELS 3 Zrotation Yrotation Xrotation
		JOINT LeftHip
		{
			OFFSET 1.65412 -1.54119 0.76744
			CHANNELS 3 Zrotation Yrotation Xrotation
			JOINT LeftKnee
			{
				OFFSET 2.19550 -6.03209 0.00000
				CHANNELS 3 Zrotation Yrotation Xrotation
				JOINT LeftAnkle
				{
					OFFSET 2.38814 -6.56138 0.00000
					CHANNELS 3 Zrotation Yrotation Xrotation
					JOINT LeftToe
					{
						OFFSET 0.17337 -0.47632 1.75875
						CHANNELS 3 Zrotation Yrotation Xrotation
						End Site
						{
							OFFSET 0.00000 -0.00000 0.92050
						}
					}
				}
			}
		}
	}
	JOINT RHipJoint
	{
		OFFSET 0 0 0
		CHANNELS 3 Zrotation Yrotation Xrotation
		JOINT RightHip
		{
			OFFSET -1.40291 -1.54119 0.76744
			CHANNELS 3 Zrotation Yrotation Xrotation
			JOINT RightKnee
			{
				OFFSET -2.22156 -6.10370 0.00000
				CHANNELS 3 Zrotation Yrotation Xrotation
				JOINT RightAnkle
				{
					OFFSET -2.46840 -6.78188 0.00000
					CHANNELS 3 Zrotation Yrotation Xrotation
					JOINT RightToe
					{
						OFFSET -0.15659 -0.43024 1.84117
						CHANNELS 3 Zrotation Yrotation Xrotation
						End Site
						{
							OFFSET -0.00000 -0.00000 0.95587
						}
					}
				}
			}
		}
	}
	JOINT lowerback
	{
		OFFSET 0 0 0
		CHANNELS 3 Zrotation Yrotation Xrotation
		JOINT Chest
		{
			OFFSET -0.01936 1.82120 -0.32061
			CHANNELS 3 Zrotation Yrotation Xrotation
			JOINT Chest2
			{
				OFFSET -0.00532 1.85767 -0.00071
				CHANNELS 3 Zrotation Yrotation Xrotation
				JOINT lowerneck
				{
					OFFSET 0 0 0
					CHANNELS 3 Zrotation Yrotation Xrotation
					JOINT Neck
					{
						OFFSET -0.10687 1.58194 0.10810
						CHANNELS 3 Zrotation Yrotation Xrotation
						JOINT Head
						{
							OFFSET 0.15346 1.57382 -0.25612
							CHANNELS 3 Zrotation Yrotation Xrotation
							End Site
							{
								OFFSET 0.05334 1.61251 -0.10513
							}
						}
					}
				}
				JOINT LeftCollar
				{
					OFFSET 0 0 0
					CHANNELS 3 Zrotation Yrotation Xrotation
					JOINT LeftShoulder
					{
						OFFSET 2.85758 0.89498 -0.01485
CHANNELS 3 Zrotation Xrotation Yrotation
						JOINT LeftElbow
						{
OFFSET 0 -4.791850 -0.000000
CHANNELS 3 Zrotation Xrotation Yrotation
							JOINT LeftWrist
							{
OFFSET 0 -2.655530 0.000000
CHANNELS 3 Zrotation Xrotation Yrotation
								JOINT lhand
								{
									OFFSET 0 0 0
CHANNELS 3 Zrotation Xrotation Yrotation
									JOINT LFingers
									{
OFFSET 0 -0.743900 0.000000
CHANNELS 3 Zrotation Xrotation Yrotation
										End Site
										{
OFFSET 0 -0.599750 0.000000
										}
									}
								}
								JOINT LThumb
								{
OFFSET 0 0.000000 0.000000
CHANNELS 3 Zrotation Xrotation Yrotation
									End Site
									{
OFFSET 0 -0.608910 0.608910
									}
								}
							}
						}
					}
				}
				JOINT RightCollar
				{
					OFFSET 0 0 0
					CHANNELS 3 Zrotation Yrotation Xrotation
					JOINT RightShoulder
					{
						OFFSET -2.93906 0.88031 0.02490
CHANNELS 3 Zrotation Xrotation Yrotation
						JOINT RightElbow
						{
OFFSET 0 -4.772540 -0.000000
CHANNELS 3 Zrotation Xrotation Yrotation
							JOINT RightWrist
							{
OFFSET 0 -2.759950 -0.000000
CHANNELS 3 Zrotation Xrotation Yrotation
								JOINT rhand
								{
									OFFSET 0 0 0
CHANNELS 3 Zrotation Xrotation Yrotation
									JOINT RFingers
									{
OFFSET 0 -0.701620 0.000000
CHANNELS 3 Zrotation Xrotation Yrotation
										End Site
										{
OFFSET 0 -0.565660 0.000000
										}
									}
								}
								JOINT RThumb
								{
OFFSET 0 0.000000 0.000000
CHANNELS 3 Zrotation Xrotation Yrotation
									End Site
									{
OFFSET 0 -0.574300 0.574300
									}
								}
							}
						}
					}
				}
			}
		}
	}
}
MOTION
Frames: 4
Frame Time: 0.008333333333333333
0.059100 16.132600 0.556500 -0.521000 -0.584200 2.325700 0.000000 0.000000 0.000000 -16.376300 -7.401800 10.522600 0.000000 0.000000 0.000000 -0.026900 7.100300 -9.471700 0.317500 -3.622100 -10.016000 0.000000 0.000000 0.000000 18.999400 10.539400 3.894400 -0.562200 -4.802300 13.345600 -0.274100 -8.744700 -16.650200 -0.154500 2.532900 -6.980900 -1.428100 -0.638000 8.556500 0.387400 -0.989500 -2.534100 1.358200 -0.408300 -7.445000 -11.891200 -7.770300 -12.168400 7.633900 -10.573500 27.527200 3.321300 -5.127300 12.139600 -0.000000 0.000000 0.000000 8.318400 4.271400 -9.090800 9.472700 -15.910600 1.326700 11.195100 11.497600 -13.664500 0.000000 0.000000 0.000000 -7.125000 0.000000 0.000000 -14.726900 43.401300 -0.594800 -0.000000 0.000000 0.000000 -7.799200 9.263100 24.865600 -17.554400 -27.582800 -4.340900 -13.424500 0.940000 -12.457300 0.000000 0.000000 0.000000 7.125000 0.000000 -0.000000 9.585600 17.292500 6.393700
0.073953 16.123835 0.571529 -0.757355 -0.063989 2.102173 0.000000 0.000000 0.000000 -16.224459 -7.826198 10.879351 0.000000 0.000000 0.000000 -0.042012 7.202760 -9.237832 0.379678 -3.957219 -10.956419 0.000000 0.000000 0.000000 19.313108 10.262895 4.351880 -0.542647 -4.719578 13.110522 -0.256677 -9.135653 -16.852487 -0.139692 2.407961 -6.634568 -1.313831 -0.523445 8.665734 0.424264 -0.822222 -2.565965 1.309921 -0.329463 -7.548527 -11.893123 -7.913206 -12.205985 7.699604 -10.769013 27.233657 3.309089 -5.204417 12.059159 0.000000 0.000000 0.000000 6.885286 5.899549 -6.903243 9.966793 -16.687628 1.465409 10.026664 9.603413 -14.868018 0.000000 0.000000 0.000000 -7.125000 0.000000 0.000000 -16.126048 44.446872 -0.224941 0.000000 0.000000 0.000000 -6.775354 9.545552 26.880632 -17.560894 -27.591300 -4.343959 -12.545091 1.185116 -11.915938 0.000000 0.000000 0.000000 7.125000 0.000000 0.000000 10.206473 17.893160 6.683991
0.091359 16.113182 0.571459 -0.688018 0.342671 1.926435 0.000000 0.000000 0.000000 -16.398674 -8.187281 11.096925 0.000000 0.000000 0.000000 -0.049642 7.230785 -9.077858 0.393220 -4.026289 -11.150571 0.000000 0.000000 0.000000 19.275270 10.216499 4.522637 -0.560418 -4.795013 13.324761 -0.256693 -9.439906 -17.188947 -0.118656 2.219154 -6.111680 -1.437439 -0.411772 8.829776 0.373739 -0.693090 -2.543064 1.308808 -0.261201 -7.622251 -12.071706 -7.992379 -12.291132 8.030082 -10.904795 26.972774 3.435251 -5.240953 12.023818 0.000000 0.000000 0.000000 4.981546 7.154279 -5.494582 10.749625 -17.903433 1.698128 9.792833 6.896083 -14.026309 0.000000 0.000000 0.000000 -7.125000 0.000000 0.000000 -16.069486 43.604775 -0.569033 0.000000 0.000000 0.000000 -6.004377 9.508822 28.678798 -17.802307 -27.903233 -4.456324 -11.064306 1.572731 -10.814340 0.000000 0.000000 0.000000 7.125000 0.000000 0.000000 11.276483 19.076706 7.109840
0.109071 16.109971 0.562853 -0.524718 0.642713 1.902649 0.000000 0.000000 0.000000 -16.672142 -8.492231 11.130931 0.000000 0.000000 0.000000 -0.057188 7.270056 -8.933130 0.388952 -4.004443 -11.089218 0.000000 0.000000 0.000000 19.061066 10.205025 4.409137 -0.584872 -4.896657 13.613988 -0.256446 -9.632155 -17.401090 -0.139635 2.408588 -6.636324 -1.625388 -0.246888 8.940811 0.273144 -0.504482 -2.595097 1.281420 -0.161178 -7.748109 -12.005411 -8.144130 -12.336978 8.071301 -11.145399 26.960936 3.397992 -5.334472 12.056506 0.000000 0.000000 0.000000 3.319063 7.787436 -5.434864 11.623941 -19.238285 1.976651 8.904690 5.023817 -13.790884 0.000000 0.000000 0.000000 -7.125000 0.000000 0.000000 -16.776587 43.282489 -0.733128 0.000000 0.000000 0.000000 -5.313825 9.600685 29.396238 -17.990046 -28.144370 -4.544534 -11.706646 1.580345 -11.563549 0.000000 0.000000 0.000000 7.125000 0.000000 0.000000 10.799510 18.294898 6.988859
